<svg width="1352" height="610" viewBox="0 0 1352 610" fill="none" xmlns="http://www.w3.org/2000/svg">
<rect x="234" y="333.986" width="26.7585" height="57" transform="rotate(90 234 333.986)" fill="#1E2922"/>
<rect x="307" y="200.193" width="26.7585" height="130" transform="rotate(90 307 200.193)" fill="#1E2922"/>
<rect x="177" y="512.376" width="27" height="312.183" transform="rotate(180 177 512.376)" fill="#1E2922"/>
<rect y="220.015" width="15" height="368.673" fill="#1E2922"/>
<rect x="150" y="573.822" width="14.8659" height="150" transform="rotate(90 150 573.822)" fill="#1E2922"/>
<rect width="14.9099" height="387.158" transform="matrix(0.57546 0.81783 -0.822652 0.568546 318.496 0.0495605)" fill="#1E2922"/>
<rect width="14.9099" height="333.009" transform="matrix(0.57546 -0.81783 -0.822652 -0.568546 583.95 201.524)" fill="#1E2922"/>
<rect x="577" y="446.967" width="27.7496" height="150" transform="rotate(90 577 446.967)" fill="#5D7A40"/>
<path d="M422 325.067C451.645 323.31 482.217 331.87 506 348.852L521.065 328.39C492.089 307.7 456.413 297.533 420.294 299.674C384.176 301.814 349.923 316.125 323.544 340.095C297.164 364.065 280.343 396.164 276.032 430.761C275.285 436.754 274.922 442.756 274.935 448.735L301 448.735C301.152 444.528 301.503 438.07 302 434.083C305.539 405.686 319.848 377.942 341.5 358.267C363.152 338.593 392.355 326.824 422 325.067Z" fill="#5D7A40"/>
<path d="M359.782 566.389L347 588.749C368.612 600.749 393.08 607.596 418.34 608.486C454.5 609.76 489.971 598.743 518.531 577.368C547.091 555.993 566.916 525.625 574.528 491.591C577.757 477.157 578.701 462.454 577.429 447.958H550.474C551.612 460.083 551.702 474.033 549 486.113C542.752 514.048 525.724 539.925 502.282 557.469C478.84 575.014 449.462 584.282 419.782 583.237C398.797 582.498 377.679 576.462 359.782 566.389Z" fill="#5D7A40"/>
<path d="M630.165 500.101V449.192H647.366C651.344 449.192 654.608 449.871 657.161 451.23C659.713 452.572 661.602 454.42 662.828 456.773C664.054 459.127 664.668 461.803 664.668 464.803C664.668 467.802 664.054 470.462 662.828 472.782C661.602 475.102 659.721 476.925 657.185 478.251C654.65 479.56 651.41 480.214 647.466 480.214H633.545V474.646H647.267C649.985 474.646 652.172 474.249 653.83 473.453C655.503 472.658 656.713 471.531 657.459 470.072C658.221 468.598 658.602 466.841 658.602 464.803C658.602 462.764 658.221 460.983 657.459 459.458C656.696 457.933 655.478 456.757 653.805 455.928C652.131 455.083 649.919 454.66 647.168 454.66H636.33V500.101H630.165ZM654.128 477.232L666.656 500.101H659.497L647.168 477.232H654.128ZM706.44 500.101V449.192H737.165V454.66H712.605V471.862H735.574V477.331H712.605V494.632H737.562V500.101H706.44ZM719.068 444.021L725.133 432.487H731.994L724.238 444.021H719.068ZM820.145 449.192V500.101H814.18L786.438 460.129H785.941V500.101H779.776V449.192H785.742L813.583 489.263H814.08V449.192H820.145ZM906.936 474.646C906.936 480.016 905.966 484.656 904.027 488.567C902.088 492.478 899.429 495.494 896.048 497.615C892.667 499.736 888.806 500.797 884.464 500.797C880.122 500.797 876.261 499.736 872.88 497.615C869.5 495.494 866.84 492.478 864.901 488.567C862.962 484.656 861.993 480.016 861.993 474.646C861.993 469.277 862.962 464.637 864.901 460.726C866.84 456.815 869.5 453.799 872.88 451.678C876.261 449.556 880.122 448.496 884.464 448.496C888.806 448.496 892.667 449.556 896.048 451.678C899.429 453.799 902.088 456.815 904.027 460.726C905.966 464.637 906.936 469.277 906.936 474.646ZM900.97 474.646C900.97 470.238 900.232 466.518 898.757 463.485C897.299 460.452 895.319 458.157 892.816 456.599C890.331 455.042 887.547 454.263 884.464 454.263C881.382 454.263 878.589 455.042 876.087 456.599C873.601 458.157 871.621 460.452 870.146 463.485C868.688 466.518 867.958 470.238 867.958 474.646C867.958 479.054 868.688 482.775 870.146 485.808C871.621 488.84 873.601 491.135 876.087 492.693C878.589 494.251 881.382 495.03 884.464 495.03C887.547 495.03 890.331 494.251 892.816 492.693C895.319 491.135 897.299 488.84 898.757 485.808C900.232 482.775 900.97 479.054 900.97 474.646ZM948.497 449.192L963.611 492.047H964.207L979.321 449.192H985.784L967.091 500.101H960.727L942.034 449.192H948.497ZM1022.93 500.101H1016.46L1035.16 449.192H1041.52L1060.21 500.101H1053.75L1038.54 457.246H1038.14L1022.93 500.101ZM1025.31 480.214H1051.36V485.683H1025.31V480.214ZM1090.91 454.66V449.192H1129.09V454.66H1113.09V500.101H1106.92V454.66H1090.91ZM1176.27 449.192V500.101H1170.11V449.192H1176.27ZM1263.09 474.646C1263.09 480.016 1262.12 484.656 1260.18 488.567C1258.24 492.478 1255.58 495.494 1252.2 497.615C1248.82 499.736 1244.96 500.797 1240.62 500.797C1236.27 500.797 1232.41 499.736 1229.03 497.615C1225.65 495.494 1222.99 492.478 1221.05 488.567C1219.11 484.656 1218.14 480.016 1218.14 474.646C1218.14 469.277 1219.11 464.637 1221.05 460.726C1222.99 456.815 1225.65 453.799 1229.03 451.678C1232.41 449.556 1236.27 448.496 1240.62 448.496C1244.96 448.496 1248.82 449.556 1252.2 451.678C1255.58 453.799 1258.24 456.815 1260.18 460.726C1262.12 464.637 1263.09 469.277 1263.09 474.646ZM1257.12 474.646C1257.12 470.238 1256.38 466.518 1254.91 463.485C1253.45 460.452 1251.47 458.157 1248.97 456.599C1246.48 455.042 1243.7 454.263 1240.62 454.263C1237.53 454.263 1234.74 455.042 1232.24 456.599C1229.75 458.157 1227.77 460.452 1226.3 463.485C1224.84 466.518 1224.11 470.238 1224.11 474.646C1224.11 479.054 1224.84 482.775 1226.3 485.808C1227.77 488.84 1229.75 491.135 1232.24 492.693C1234.74 494.251 1237.53 495.03 1240.62 495.03C1243.7 495.03 1246.48 494.251 1248.97 492.693C1251.47 491.135 1253.45 488.84 1254.91 485.808C1256.38 482.775 1257.12 479.054 1257.12 474.646ZM1345.32 449.192V500.101H1339.36L1311.62 460.129H1311.12V500.101H1304.95V449.192H1310.92L1338.76 489.263H1339.26V449.192H1345.32Z" fill="#5D7A40"/>
</svg>
