<svg width="593" height="609" viewBox="0 0 593 609" fill="none" xmlns="http://www.w3.org/2000/svg">
<path d="M231 360.744V333.986H174V360.744H231Z" fill="#181A1B"/>
<path d="M304 226.952V200.193H174V226.952H304Z" fill="#181A1B"/>
<path d="M150 512.376H177L177 200.193H150L150 512.376Z" fill="#181A1B"/>
<path d="M15 220.015H0V588.688H15V220.015Z" fill="#181A1B"/>
<path d="M150 588.688V573.822H0V588.688H150Z" fill="#181A1B"/>
<path d="M327.076 12.6938L318.496 0.5L-0.00019378 220.617L8.57986 232.811L327.076 12.6938Z" fill="#181A1B"/>
<path d="M592.53 189.33L583.95 201.524L310 12.1931L318.58 -0.000712344L592.53 189.33Z" fill="#181A1B"/>
<path d="M577 474.717V446.967H427V474.717H577Z" fill="#2F5C4B"/>
<path d="M422 325.067C451.645 323.31 482.217 331.87 506 348.852L521.065 328.39C492.089 307.7 456.413 297.533 420.294 299.674C384.176 301.814 349.923 316.125 323.544 340.095C297.164 364.065 280.343 396.164 276.032 430.761C275.285 436.754 274.922 442.756 274.935 448.735H301C301.152 444.528 301.503 438.07 302 434.083C305.539 405.686 319.848 377.942 341.5 358.267C363.152 338.593 392.355 326.824 422 325.067Z" fill="#2F5C4B"/>
<path d="M359.782 566.389L347 588.749C368.612 600.749 393.08 607.596 418.34 608.486C454.5 609.76 489.971 598.743 518.531 577.368C547.091 555.993 566.916 525.625 574.528 491.591C577.757 477.157 578.701 462.454 577.429 447.958H550.474C551.612 460.083 551.702 474.033 549 486.113C542.752 514.048 525.724 539.925 502.282 557.469C478.84 575.014 449.462 584.282 419.782 583.237C398.797 582.498 377.679 576.462 359.782 566.389Z" fill="#2F5C4B"/>
</svg>
